<svg xmlns="http://www.w3.org/2000/svg" viewBox="0 0 200 200" fill="none">
  <rect width="200" height="200" rx="24" fill="#F5F5F7"/>
  <rect x="30" y="75" width="140" height="60" rx="8" fill="#1d1d1f"/>
  <rect x="38" y="82" width="12" height="12" rx="2" fill="#3a3a3c"/>
  <rect x="54" y="82" width="12" height="12" rx="2" fill="#3a3a3c"/>
  <rect x="70" y="82" width="12" height="12" rx="2" fill="#3a3a3c"/>
  <rect x="86" y="82" width="12" height="12" rx="2" fill="#3a3a3c"/>
  <rect x="102" y="82" width="12" height="12" rx="2" fill="#3a3a3c"/>
  <rect x="118" y="82" width="12" height="12" rx="2" fill="#3a3a3c"/>
  <rect x="134" y="82" width="12" height="12" rx="2" fill="#3a3a3c"/>
  <rect x="150" y="82" width="12" height="12" rx="2" fill="#3a3a3c"/>
  <rect x="38" y="98" width="12" height="12" rx="2" fill="#3a3a3c"/>
  <rect x="54" y="98" width="12" height="12" rx="2" fill="#3a3a3c"/>
  <rect x="70" y="98" width="12" height="12" rx="2" fill="#60a5fa"/>
  <rect x="86" y="98" width="12" height="12" rx="2" fill="#3a3a3c"/>
  <rect x="102" y="98" width="12" height="12" rx="2" fill="#3a3a3c"/>
  <rect x="118" y="98" width="12" height="12" rx="2" fill="#3a3a3c"/>
  <rect x="134" y="98" width="12" height="12" rx="2" fill="#3a3a3c"/>
  <rect x="150" y="98" width="12" height="12" rx="2" fill="#3a3a3c"/>
  <rect x="46" y="114" width="108" height="12" rx="2" fill="#3a3a3c"/>
</svg>
